<svg width="306" height="63" viewBox="0 0 306 63" fill="none" xmlns="http://www.w3.org/2000/svg">
<path d="M14.6338 14.5801C26.6748 14.5361 34.0356 21.2598 34.0356 32.334C34.0356 43.3203 26.6748 50 14.6338 50H3.07617V14.6021L14.6338 14.5801ZM14.48 41.145C20.7642 41.145 24.6094 37.8052 24.6094 32.312C24.6094 26.7529 20.7422 23.3691 14.3921 23.3691H12.2388V41.145H14.48ZM58.9307 23.6328H67.1484V50H58.9307L58.5132 47.2754C56.5576 49.5825 53.7231 50.9229 50.1636 50.9229C42.2314 50.9229 37.0239 44.375 37.0239 36.8164C37.0239 28.9722 42.4512 22.71 50.1636 22.71C53.6572 22.71 56.5137 23.9844 58.5352 26.3135L58.9307 23.6328ZM52.1411 42.8809C55.6348 42.8809 58.2715 40.354 58.2715 36.7505C58.2715 33.0591 55.481 30.73 52.1631 30.73C48.5596 30.73 45.9009 33.4766 45.9009 36.7725C45.9009 39.9365 48.3398 42.8809 52.1411 42.8809ZM83.0566 50.4395C76.5747 50.4395 74.5532 46.0449 74.5532 41.123V31.4771H70.8618V24.3579H71.6968C74.0479 24.3579 75.4321 23.0615 75.4321 20.6885V18.0737H83.4302V23.6328H88.8135V31.4771H83.4302V40.6836C83.4302 42.4854 84.4849 43.4082 86.0669 43.4082C86.8799 43.4082 87.9565 43.1226 88.7476 42.8809V49.5386C87.2754 50.1099 84.7925 50.4395 83.0566 50.4395ZM113.027 23.6328H121.245V50H113.027L112.61 47.2754C110.654 49.5825 107.82 50.9229 104.26 50.9229C96.3281 50.9229 91.1206 44.375 91.1206 36.8164C91.1206 28.9722 96.5479 22.71 104.26 22.71C107.754 22.71 110.61 23.9844 112.632 26.3135L113.027 23.6328ZM106.238 42.8809C109.731 42.8809 112.368 40.354 112.368 36.7505C112.368 33.0591 109.578 30.73 106.26 30.73C102.656 30.73 99.9976 33.4766 99.9976 36.7725C99.9976 39.9365 102.437 42.8809 106.238 42.8809ZM185.427 35.7617C185.427 37.168 185.186 38.6401 184.812 39.6509V39.8267H166.75C167.717 42.1338 169.717 43.7158 172.288 43.7158C173.562 43.7158 175.21 43.3423 177.122 41.6284L183.735 45.4736C180.286 49.9341 175.298 50.8789 172.112 50.8789C164.092 50.8789 157.83 44.9243 157.83 36.8164C157.83 28.5986 164.268 22.7539 172.134 22.7539C180.505 22.7539 185.427 29.3457 185.427 35.7617ZM172.002 29.895C169.124 29.895 167.168 31.8506 166.443 34.4214H176.946C176.418 31.8286 174.88 29.895 172.002 29.895ZM198.391 26.7749C201.072 23.7427 204.653 22.5122 207.795 22.4902L206.433 31.3452C206.082 31.2793 205.554 31.2134 204.961 31.2134C202.324 31.2134 198.589 32.312 198.589 39.3652V50H189.712V23.6328H197.93L198.391 26.7749ZM221.748 50.4395C215.266 50.4395 213.245 46.0449 213.245 41.123V31.4771H209.553V24.3579H210.388C212.739 24.3579 214.124 23.0615 214.124 20.6885V18.0737H222.122V23.6328H227.505V31.4771H222.122V40.6836C222.122 42.4854 223.176 43.4082 224.758 43.4082C225.571 43.4082 226.648 43.1226 227.439 42.8809V49.5386C225.967 50.1099 223.484 50.4395 221.748 50.4395ZM257.41 35.7617C257.41 37.168 257.168 38.6401 256.794 39.6509V39.8267H238.733C239.7 42.1338 241.699 43.7158 244.27 43.7158C245.544 43.7158 247.192 43.3423 249.104 41.6284L255.718 45.4736C252.268 49.9341 247.28 50.8789 244.094 50.8789C236.074 50.8789 229.812 44.9243 229.812 36.8164C229.812 28.5986 236.25 22.7539 244.116 22.7539C252.488 22.7539 257.41 29.3457 257.41 35.7617ZM243.984 29.895C241.106 29.895 239.15 31.8506 238.425 34.4214H248.928C248.401 31.8286 246.863 29.895 243.984 29.895ZM270.374 26.7749C273.054 23.7427 276.636 22.5122 279.778 22.4902L278.416 31.3452C278.064 31.2793 277.537 31.2134 276.943 31.2134C274.307 31.2134 270.571 32.312 270.571 39.3652V50H261.694V23.6328H269.912L270.374 26.7749ZM291.907 50.9668C286.985 50.9668 282.744 48.8135 281.316 46.001L285.227 40.6836C286.392 42.1558 289.556 43.6938 292.632 43.6938C293.774 43.6938 295.049 43.4302 295.049 42.4634C295.049 41.3647 292.764 40.6836 290.105 39.7168C285.557 38.2666 282.217 35.5859 282.217 31.521C282.217 25.7861 287.556 22.688 293.071 22.688C297.07 22.688 301.157 24.4019 302.542 26.9287L298.059 31.8506C296.785 30.6421 294.829 29.873 292.808 29.873C291.533 29.873 290.566 30.1367 290.566 30.9717C290.566 31.8945 291.929 32.356 296.016 33.7183C301.113 35.5859 303.948 37.7393 303.948 41.8481C303.948 47.4731 298.828 50.9668 291.907 50.9668Z" fill="white"/>
<path d="M151.106 14.5801H161.411L145.085 50.3735H140.823L124.563 14.5801H134.736L142.91 33.7622L151.106 14.5801Z" fill="#B6B5FF"/>
</svg>
